<svg width="150" height="120" viewBox="0 0 150 120" fill="none" xmlns="http://www.w3.org/2000/svg">
<line y1="-1.5" x2="87.7247" y2="-1.5" transform="matrix(0.685547 -0.728028 0.685547 0.728028 53.7771 106.443)" stroke="#FFD700" stroke-width="3"/>
<path d="M125.276 56.0602C122.029 59.5082 118.451 62.537 114.747 64.9736C111.042 67.4102 107.282 69.207 103.684 70.2613C100.085 71.3156 96.7166 71.6068 93.7716 71.1183C90.8266 70.6298 88.3624 69.3711 86.5196 67.4142C84.6768 65.4572 83.4916 62.8402 83.0316 59.7127C82.5716 56.5852 82.8458 53.0084 83.8386 49.1865C84.8314 45.3647 86.5234 41.3725 88.8178 37.4381C91.1123 33.5037 93.9643 29.704 97.2111 26.256L100.302 29.5381C97.77 32.2267 95.5461 35.1895 93.7569 38.2574C91.9678 41.3253 90.6485 44.4382 89.8744 47.4183C89.1002 50.3985 88.8864 53.1875 89.2451 55.6262C89.6038 58.0649 90.528 60.1055 91.9649 61.6315C93.4018 63.1574 95.3233 64.1389 97.6197 64.5198C99.9161 64.9007 102.542 64.6737 105.349 63.8515C108.155 63.0294 111.086 61.6284 113.975 59.7284C116.864 57.8284 119.654 55.4667 122.186 52.7781L125.276 56.0602Z" fill="#FFD700"/>
<line y1="-1.5" x2="87.7247" y2="-1.5" transform="matrix(-0.685547 -0.728028 0.685547 -0.728028 100.232 102.969)" stroke="#FFD700" stroke-width="3"/>
<path d="M52.789 27.0394C56.0358 30.4874 58.8879 34.2871 61.1823 38.2215C63.4768 42.156 65.1687 46.1481 66.1615 49.97C67.1543 53.7919 67.4285 57.3687 66.9685 60.4961C66.5085 63.6236 65.3233 66.2406 63.4805 68.1975C61.6377 70.1545 59.1734 71.4132 56.2284 71.9017C53.2834 72.3902 49.9153 72.099 46.3165 71.0447C42.7176 69.9903 38.9584 68.1936 35.2536 65.7569C31.5487 63.3203 27.9707 60.2915 24.7239 56.8435L27.8145 53.5615C30.3462 56.2501 33.1362 58.6118 36.0251 60.5118C38.9139 62.4117 41.8452 63.8128 44.6514 64.6349C47.4577 65.457 50.084 65.6841 52.3804 65.3032C54.6768 64.9223 56.5983 63.9408 58.0352 62.4148C59.4721 60.8889 60.3963 58.8483 60.755 56.4096C61.1137 53.9709 60.8999 51.1819 60.1257 48.2018C59.3516 45.2216 58.0323 42.1087 56.2432 39.0408C54.4541 35.9729 52.2302 33.0101 49.6985 30.3215L52.789 27.0394Z" fill="#FFD700"/>
</svg>