<svg width="45" height="45" viewBox="0 0 45 45" fill="none" xmlns="http://www.w3.org/2000/svg">
    <path fill-rule="evenodd" clip-rule="evenodd"
        d="M0 22.5C0 10.0736 10.0736 0 22.5 0C34.9264 0 45 10.0736 45 22.5C45 34.9264 34.9264 45 22.5 45C10.0736 45 0 34.9264 0 22.5ZM22.4675 16.52C24.2957 16.52 25.5289 17.3108 26.2321 17.9717L28.9798 15.285C27.2922 13.7142 25.0962 12.75 22.4675 12.75C18.6597 12.75 15.3711 14.9383 13.7701 18.1233C13.1102 19.445 12.7316 20.9292 12.7316 22.5C12.7316 24.0708 13.1102 25.555 13.7701 26.8767L16.9289 24.4283L13.7809 26.8767C15.3819 30.0617 18.6597 32.25 22.4675 32.25C25.0962 32.25 27.303 31.3833 28.9149 29.8883C30.7539 28.1875 31.814 25.685 31.814 22.7167C31.814 21.915 31.7491 21.33 31.6085 20.7233H22.4675V24.3417H27.8331C27.7249 25.2408 27.1408 26.595 25.8427 27.505C25.0205 28.0792 23.9171 28.48 22.4675 28.48C19.8929 28.48 17.7077 26.7792 16.9289 24.4283C16.7233 23.8217 16.6043 23.1717 16.6043 22.5C16.6043 21.8283 16.7233 21.1783 16.9181 20.5717C17.7077 18.2208 19.8929 16.52 22.4675 16.52Z"
        fill="white" />
</svg>