<svg width="45" height="45" viewBox="0 0 45 45" fill="none" xmlns="http://www.w3.org/2000/svg">
    <path fill-rule="evenodd" clip-rule="evenodd"
        d="M22.5 0C10.0736 0 0 10.0736 0 22.5C0 34.9264 10.0736 45 22.5 45C34.9264 45 45 34.9264 45 22.5C45 10.0736 34.9264 0 22.5 0ZM17.5531 10.5725C18.8331 10.5142 19.2421 10.5 22.5011 10.5H22.4974C25.7574 10.5 26.1649 10.5142 27.4449 10.5725C28.7224 10.631 29.5949 10.8333 30.36 11.13C31.15 11.4363 31.8175 11.8463 32.485 12.5138C33.1525 13.1808 33.5625 13.8503 33.87 14.6395C34.165 15.4026 34.3675 16.2746 34.4275 17.5521C34.485 18.8321 34.5 19.2411 34.5 22.5001C34.5 25.7592 34.485 26.1672 34.4275 27.4472C34.3675 28.7242 34.165 29.5965 33.87 30.3597C33.5625 31.1487 33.1525 31.8182 32.485 32.4852C31.8182 33.1527 31.1497 33.5637 30.3607 33.8702C29.5972 34.167 28.7242 34.3693 27.4467 34.4277C26.1667 34.486 25.7589 34.5003 22.4996 34.5003C19.2408 34.5003 18.8321 34.486 17.5521 34.4277C16.2748 34.3693 15.4026 34.167 14.639 33.8702C13.8503 33.5637 13.1808 33.1527 12.514 32.4852C11.8468 31.8182 11.4368 31.1487 11.13 30.3595C10.8335 29.5964 10.6313 28.7244 10.5725 27.4469C10.5145 26.1669 10.5 25.7592 10.5 22.5001C10.5 19.2411 10.515 18.8318 10.5723 17.5518C10.6298 16.2748 10.8323 15.4026 11.1298 14.6393C11.4373 13.8503 11.8473 13.1808 12.5148 12.5138C13.1818 11.8465 13.8513 11.4365 14.6405 11.13C15.4036 10.8333 16.2756 10.631 17.5531 10.5725Z"
        fill="white" />
    <path fill-rule="evenodd" clip-rule="evenodd"
        d="M21.4247 12.6625C21.6337 12.6622 21.8586 12.6623 22.1012 12.6624L22.5012 12.6625C25.7052 12.6625 26.085 12.674 27.3502 12.7315C28.5202 12.785 29.1552 12.9805 29.5783 13.1448C30.1383 13.3623 30.5375 13.6223 30.9573 14.0423C31.3773 14.4623 31.6373 14.8623 31.8553 15.4223C32.0195 15.8448 32.2153 16.4798 32.2685 17.6498C32.326 18.9149 32.3385 19.2949 32.3385 22.4974C32.3385 25.6999 32.326 26.0799 32.2685 27.3449C32.215 28.515 32.0195 29.15 31.8553 29.5725C31.6378 30.1325 31.3773 30.5312 30.9573 30.951C30.5373 31.371 30.1385 31.631 29.5783 31.8485C29.1557 32.0135 28.5202 32.2085 27.3502 32.262C26.0852 32.3195 25.7052 32.332 22.5012 32.332C19.2969 32.332 18.9171 32.3195 17.6521 32.262C16.4821 32.208 15.8471 32.0125 15.4239 31.8482C14.8638 31.6307 14.4638 31.3707 14.0438 30.9507C13.6238 30.5307 13.3638 30.1317 13.1458 29.5715C12.9816 29.149 12.7858 28.514 12.7326 27.3439C12.6751 26.0789 12.6636 25.6989 12.6636 22.4944C12.6636 19.2899 12.6751 18.9119 12.7326 17.6468C12.7861 16.4768 12.9816 15.8418 13.1458 15.4188C13.3633 14.8588 13.6238 14.4588 14.0438 14.0388C14.4638 13.6188 14.8638 13.3588 15.4239 13.1408C15.8469 12.9758 16.4821 12.7808 17.6521 12.727C18.7591 12.677 19.1881 12.662 21.4247 12.6595V12.6625ZM28.9067 14.6551C28.1117 14.6551 27.4667 15.2993 27.4667 16.0946C27.4667 16.8896 28.1117 17.5346 28.9067 17.5346C29.7018 17.5346 30.3468 16.8896 30.3468 16.0946C30.3468 15.2996 29.7018 14.6546 28.9067 14.6546V14.6551ZM16.3386 22.5001C16.3386 19.0969 19.0978 16.3377 22.5009 16.3376C25.9042 16.3376 28.6627 19.0969 28.6627 22.5001C28.6627 25.9034 25.9045 28.6615 22.5012 28.6615C19.0979 28.6615 16.3386 25.9034 16.3386 22.5001Z"
        fill="white" />
    <path
        d="M22.501 18.5001C24.71 18.5001 26.5011 20.2908 26.5011 22.5001C26.5011 24.7091 24.71 26.5001 22.501 26.5001C20.2917 26.5001 18.501 24.7091 18.501 22.5001C18.501 20.2908 20.2917 18.5001 22.501 18.5001V18.5001Z"
        fill="white" />
</svg>